<svg width="21" height="24" viewBox="0 0 21 24" fill="none" xmlns="http://www.w3.org/2000/svg">
<path d="M20.9616 22.5066L19.2053 5.78162C19.1685 5.43149 18.8733 5.16563 18.5213 5.16563H15.2202V4.41301C15.2202 2.067 13.3114 0.158203 10.9654 0.158203C8.61923 0.158203 6.71043 2.067 6.71043 4.41301V5.16563H3.4094C3.05733 5.16563 2.76221 5.43149 2.72536 5.78162L0.969066 22.5066C0.948792 22.7004 1.01173 22.8938 1.14202 23.0387C1.27248 23.1834 1.4583 23.2661 1.65311 23.2661H20.2774C20.4724 23.2661 20.6582 23.1834 20.7885 23.0387C20.9191 22.8938 20.9819 22.7004 20.9616 22.5066ZM8.08592 4.41301C8.08592 2.82544 9.37766 1.53369 10.9654 1.53369C12.553 1.53369 13.8447 2.82544 13.8447 4.41301V5.16563H8.08592V4.41301ZM2.41684 21.8906L4.02874 6.54112H6.71043V8.05677C6.71043 8.43652 7.01843 8.74451 7.39818 8.74451C7.77792 8.74451 8.08592 8.43652 8.08592 8.05677V6.54112H13.8447V8.05677C13.8447 8.43652 14.1527 8.74451 14.5325 8.74451C14.9122 8.74451 15.2202 8.43652 15.2202 8.05677V6.54112H17.9019L19.5138 21.8906H2.41684Z" fill="#2E2E2D"/>
</svg>
