<svg width="26" height="17" viewBox="0 0 26 17" fill="none" xmlns="http://www.w3.org/2000/svg">
<mask id="path-1-inside-1" fill="white">
<path d="M23.9406 7.4033L23.2739 4.73678C23.4562 4.69806 23.5929 4.53637 23.5929 4.34264V3.91271C23.5929 2.97924 22.8335 2.21983 21.9 2.21983H18.8636V1.33302C18.8636 0.873671 18.49 0.5 18.0306 0.5H2.55274C2.0934 0.5 1.71973 0.873671 1.71973 1.33302V8.64201C1.71973 8.8646 1.90018 9.0451 2.12281 9.0451C2.3454 9.0451 2.5259 8.86465 2.5259 8.64201V1.33302C2.5259 1.31818 2.53791 1.30617 2.55274 1.30617H18.0306C18.0454 1.30617 18.0574 1.31818 18.0574 1.33302V8.64212C18.0574 8.8647 18.2379 9.0452 18.4605 9.0452C18.6831 9.0452 18.8636 8.86475 18.8636 8.64212V8.18518H23.6184C23.6188 8.18518 23.6191 8.18528 23.6194 8.18528C23.6198 8.18528 23.6202 8.18523 23.6205 8.18523C24.2056 8.18564 24.7024 8.56966 24.8731 9.09885H23.6197C23.3971 9.09885 23.2166 9.2793 23.2166 9.50193V10.3618C23.2166 11.0582 23.7832 11.6247 24.4796 11.6247H24.9364V13.3982H23.8825C23.5363 12.3985 22.5859 11.6784 21.47 11.6784C20.3541 11.6784 19.4037 12.3985 19.0575 13.3982H18.8635V10.3617C18.8635 10.1392 18.683 9.95866 18.4604 9.95866C18.2378 9.95866 18.0573 10.1391 18.0573 10.3617V13.3981H9.69457C9.34835 12.3984 8.39803 11.6783 7.2821 11.6783C6.16617 11.6783 5.2158 12.3984 4.86963 13.3981H2.55274C2.53791 13.3981 2.5259 13.3861 2.5259 13.3713V12.4845H4.27252C4.49511 12.4845 4.67561 12.3041 4.67561 12.0814C4.67561 11.8588 4.49516 11.6783 4.27252 11.6783H0.403084C0.1805 11.6783 0 11.8588 0 12.0814C0 12.3041 0.18045 12.4845 0.403084 12.4845H1.71978V13.3713C1.71978 13.8306 2.09345 14.2043 2.5528 14.2043H4.73006C4.72996 14.2132 4.72936 14.2221 4.72936 14.2311C4.72936 15.6387 5.87455 16.7839 7.2821 16.7839C8.68965 16.7839 9.83485 15.6387 9.83485 14.2311C9.83485 14.2221 9.83424 14.2132 9.83414 14.2043H18.918C18.9179 14.2132 18.9173 14.2221 18.9173 14.2311C18.9173 15.6387 20.0625 16.7839 21.47 16.7839C22.8776 16.7839 24.0228 15.6387 24.0228 14.2311C24.0228 14.2221 24.0222 14.2132 24.0221 14.2043H25.3395C25.5621 14.2043 25.7426 14.0238 25.7426 13.8012V9.50183C25.7426 8.44035 24.9595 7.55841 23.9406 7.4033ZM18.8636 3.02595H21.9C22.389 3.02595 22.7868 3.42375 22.7868 3.91271V3.93956H18.8636V3.02595ZM18.8636 7.37907V4.74568H22.4452L23.1036 7.37907H18.8636ZM7.2821 15.9779C6.31901 15.9779 5.53547 15.1944 5.53547 14.2312C5.53547 13.2681 6.31901 12.4846 7.2821 12.4846C8.24519 12.4846 9.02873 13.2681 9.02873 14.2312C9.02873 15.1944 8.24519 15.9779 7.2821 15.9779ZM21.4701 15.9779C20.507 15.9779 19.7235 15.1944 19.7235 14.2312C19.7235 13.2681 20.507 12.4846 21.4701 12.4846C22.4332 12.4846 23.2167 13.2681 23.2167 14.2312C23.2167 15.1944 22.4332 15.9779 21.4701 15.9779ZM24.9365 10.8186H24.4797C24.2278 10.8186 24.0229 10.6136 24.0229 10.3617V9.90491H24.9365V10.8186H24.9365Z"/>
</mask>
<path d="M23.9406 7.4033L22.0003 7.88838L22.3232 9.18013L23.6396 9.38052L23.9406 7.4033ZM23.2739 4.73678L22.8584 2.78042L20.8309 3.21108L21.3336 5.22186L23.2739 4.73678ZM18.8636 2.21983H16.8636V4.21983H18.8636V2.21983ZM18.8636 8.18518V6.18518H16.8636V8.18518H18.8636ZM23.6205 8.18523L23.6219 6.18523H23.6205V8.18523ZM24.8731 9.09885V11.0988H27.6194L26.7766 8.48503L24.8731 9.09885ZM24.9364 11.6247H26.9364V9.62474H24.9364V11.6247ZM24.9364 13.3982V15.3982H26.9364V13.3982H24.9364ZM23.8825 13.3982L21.9926 14.0527L22.4586 15.3982H23.8825V13.3982ZM19.0575 13.3982V15.3982H20.4815L20.9475 14.0526L19.0575 13.3982ZM18.8635 13.3982H16.8635V15.3982H18.8635V13.3982ZM18.0573 13.3981V15.3981H20.0573V13.3981H18.0573ZM9.69457 13.3981L7.8047 14.0526L8.27067 15.3981H9.69457V13.3981ZM4.86963 13.3981V15.3981H6.29359L6.75953 14.0525L4.86963 13.3981ZM2.5259 12.4845V10.4845H0.525896V12.4845H2.5259ZM1.71978 12.4845H3.71978V10.4845H1.71978V12.4845ZM4.73006 14.2043L6.72993 14.2268L6.75266 12.2043H4.73006V14.2043ZM9.83414 14.2043V12.2043H7.81154L7.83427 14.2268L9.83414 14.2043ZM18.918 14.2043L20.9178 14.2268L20.9406 12.2043H18.918V14.2043ZM24.0221 14.2043V12.2043H21.9995L22.0222 14.2268L24.0221 14.2043ZM25.7426 9.50183L23.7426 9.50173V9.50183H25.7426ZM18.8636 3.02595V1.02595H16.8636V3.02595H18.8636ZM22.7868 3.93956V5.93956H24.7868V3.93956H22.7868ZM18.8636 3.93956H16.8636V5.93956H18.8636V3.93956ZM18.8636 7.37907H16.8636V9.37907H18.8636V7.37907ZM18.8636 4.74568V2.74568H16.8636V4.74568H18.8636ZM22.4452 4.74568L24.3855 4.2606L24.0068 2.74568H22.4452V4.74568ZM23.1036 7.37907V9.37907H25.6651L25.0439 6.894L23.1036 7.37907ZM24.0229 9.90491V7.90491H22.0229V9.90491H24.0229ZM24.9365 9.90491H26.9365V7.90491H24.9365V9.90491ZM24.9365 10.8186H22.9365V12.8186H24.9365V10.8186ZM25.8808 6.91822L25.2142 4.2517L21.3336 5.22186L22.0003 7.88838L25.8808 6.91822ZM23.6895 6.69313C24.7751 6.46252 25.5929 5.50152 25.5929 4.34264H21.5929C21.5929 3.57121 22.1372 2.9336 22.8584 2.78042L23.6895 6.69313ZM25.5929 4.34264V3.91271H21.5929V4.34264H25.5929ZM25.5929 3.91271C25.5929 1.87463 23.938 0.21983 21.9 0.21983V4.21983C21.7289 4.21983 21.5929 4.08384 21.5929 3.91271H25.5929ZM21.9 0.21983H18.8636V4.21983H21.9V0.21983ZM20.8636 2.21983V1.33302H16.8636V2.21983H20.8636ZM20.8636 1.33302C20.8636 -0.230898 19.5945 -1.5 18.0306 -1.5V2.5C17.3854 2.5 16.8636 1.97824 16.8636 1.33302H20.8636ZM18.0306 -1.5H2.55274V2.5H18.0306V-1.5ZM2.55274 -1.5C0.98883 -1.5 -0.280271 -0.230899 -0.280271 1.33302H3.71973C3.71973 1.97824 3.19797 2.5 2.55274 2.5V-1.5ZM-0.280271 1.33302V8.64201H3.71973V1.33302H-0.280271ZM-0.280271 8.64201C-0.280271 9.96901 0.795448 11.0451 2.12281 11.0451V7.0451C3.00491 7.0451 3.71973 7.76019 3.71973 8.64201H-0.280271ZM2.12281 11.0451C3.4498 11.0451 4.5259 9.96938 4.5259 8.64201H0.525896C0.525896 7.75992 1.24099 7.0451 2.12281 7.0451V11.0451ZM4.5259 8.64201V1.33302H0.525896V8.64201H4.5259ZM4.5259 1.33302C4.5259 2.42277 3.64246 3.30617 2.55274 3.30617V-0.693833C1.43336 -0.693833 0.525896 0.213595 0.525896 1.33302H4.5259ZM2.55274 3.30617H18.0306V-0.693833H2.55274V3.30617ZM18.0306 3.30617C16.9408 3.30617 16.0574 2.42275 16.0574 1.33302H20.0574C20.0574 0.213614 19.15 -0.693833 18.0306 -0.693833V3.30617ZM16.0574 1.33302V8.64212H20.0574V1.33302H16.0574ZM16.0574 8.64212C16.0574 9.96911 17.1331 11.0452 18.4605 11.0452V7.0452C19.3426 7.0452 20.0574 7.76029 20.0574 8.64212H16.0574ZM18.4605 11.0452C19.7875 11.0452 20.8636 9.96948 20.8636 8.64212H16.8636C16.8636 7.76002 17.5787 7.0452 18.4605 7.0452V11.0452ZM20.8636 8.64212V8.18518H16.8636V8.64212H20.8636ZM18.8636 10.1852H23.6184V6.18518H18.8636V10.1852ZM23.6184 10.1852C23.5766 10.1852 23.5379 10.1839 23.5028 10.1818C23.4678 10.1798 23.4369 10.1771 23.4112 10.1744C23.3856 10.1717 23.3646 10.1691 23.3504 10.1671C23.3433 10.1662 23.3374 10.1653 23.3334 10.1647C23.3295 10.1642 23.3265 10.1637 23.3259 10.1637C23.3258 10.1636 23.3257 10.1636 23.3256 10.1636C23.3256 10.1636 23.3256 10.1636 23.3256 10.1636C23.3256 10.1636 23.3256 10.1636 23.3256 10.1636C23.3255 10.1636 23.3257 10.1636 23.3258 10.1636C23.3262 10.1637 23.3271 10.1638 23.3283 10.164C23.3306 10.1643 23.3351 10.165 23.3408 10.1658C23.352 10.1674 23.3717 10.1701 23.3963 10.1728C23.4464 10.1784 23.5241 10.1853 23.6194 10.1853V6.18528C23.7146 6.18528 23.7922 6.19213 23.842 6.19772C23.8666 6.20047 23.8862 6.20314 23.8973 6.2047C23.9029 6.20549 23.9074 6.20615 23.9097 6.20648C23.9108 6.20665 23.9117 6.20679 23.9121 6.20683C23.9122 6.20686 23.9124 6.20688 23.9123 6.20687C23.9123 6.20687 23.9123 6.20686 23.9122 6.20685C23.9121 6.20685 23.9121 6.20683 23.9119 6.20682C23.9113 6.20672 23.9082 6.20626 23.9043 6.2057C23.9003 6.20512 23.8943 6.20427 23.8871 6.2033C23.8728 6.20137 23.8518 6.19866 23.8262 6.19599C23.8003 6.1933 23.7693 6.19057 23.7342 6.18854C23.699 6.1865 23.6602 6.18518 23.6184 6.18518V10.1852ZM23.6194 10.1853C23.6613 10.1853 23.6959 10.184 23.7195 10.1828C23.7312 10.1822 23.7409 10.1816 23.7473 10.1812C23.7534 10.1808 23.7582 10.1805 23.7585 10.1805C23.7594 10.1804 23.7582 10.1805 23.7576 10.1805C23.7566 10.1806 23.7546 10.1807 23.752 10.1809C23.7471 10.1812 23.7382 10.1818 23.727 10.1824C23.7157 10.183 23.7008 10.1837 23.6832 10.1843C23.6655 10.1848 23.6444 10.1852 23.6205 10.1852V6.18523C23.5966 6.18523 23.5754 6.18566 23.5576 6.18622C23.5399 6.18678 23.5249 6.18748 23.5135 6.18809C23.5022 6.1887 23.4932 6.18927 23.4882 6.1896C23.4857 6.18977 23.4836 6.18991 23.4826 6.18999C23.4819 6.19004 23.4807 6.19012 23.4815 6.19006C23.4817 6.19005 23.4864 6.18971 23.4924 6.18933C23.4987 6.18893 23.5083 6.18835 23.52 6.18776C23.5434 6.1866 23.5778 6.18528 23.6194 6.18528V10.1853ZM23.6192 10.1852C23.309 10.185 23.0566 9.9825 22.9696 9.71266L26.7766 8.48503C26.3482 7.15683 25.1023 6.18625 23.6219 6.18523L23.6192 10.1852ZM24.8731 7.09885H23.6197V11.0988H24.8731V7.09885ZM23.6197 7.09885C22.2927 7.09885 21.2166 8.17456 21.2166 9.50193H25.2166C25.2166 10.384 24.5016 11.0988 23.6197 11.0988V7.09885ZM21.2166 9.50193V10.3618H25.2166V9.50193H21.2166ZM21.2166 10.3618C21.2166 12.1628 22.6786 13.6247 24.4796 13.6247V9.62474C24.8878 9.62474 25.2166 9.95364 25.2166 10.3618H21.2166ZM24.4796 13.6247H24.9364V9.62474H24.4796V13.6247ZM22.9364 11.6247V13.3982H26.9364V11.6247H22.9364ZM24.9364 11.3982H23.8825V15.3982H24.9364V11.3982ZM25.7724 12.7437C25.1569 10.9666 23.4674 9.67844 21.47 9.67844V13.6784C21.7045 13.6784 21.9156 13.8305 21.9926 14.0527L25.7724 12.7437ZM21.47 9.67844C19.4727 9.67844 17.7831 10.9665 17.1676 12.7438L20.9475 14.0526C21.0244 13.8305 21.2355 13.6784 21.47 13.6784V9.67844ZM19.0575 11.3982H18.8635V15.3982H19.0575V11.3982ZM20.8635 13.3982V10.3617H16.8635V13.3982H20.8635ZM20.8635 10.3617C20.8635 9.03475 19.7878 7.95866 18.4604 7.95866V11.9587C17.5783 11.9587 16.8635 11.2436 16.8635 10.3617H20.8635ZM18.4604 7.95866C17.1334 7.95866 16.0573 9.03438 16.0573 10.3617H20.0573C20.0573 11.2438 19.3422 11.9587 18.4604 11.9587V7.95866ZM16.0573 10.3617V13.3981H20.0573V10.3617H16.0573ZM18.0573 11.3981H9.69457V15.3981H18.0573V11.3981ZM11.5844 12.7436C10.969 10.9665 9.27951 9.67834 7.2821 9.67834V13.6783C7.51656 13.6783 7.72773 13.8304 7.8047 14.0526L11.5844 12.7436ZM7.2821 9.67834C5.28476 9.67834 3.59516 10.9664 2.97973 12.7437L6.75953 14.0525C6.83644 13.8304 7.04758 13.6783 7.2821 13.6783V9.67834ZM4.86963 11.3981H2.55274V15.3981H4.86963V11.3981ZM2.55274 11.3981C3.64254 11.3981 4.5259 12.2816 4.5259 13.3713H0.525896C0.525896 14.4906 1.43329 15.3981 2.55274 15.3981V11.3981ZM4.5259 13.3713V12.4845H0.525896V13.3713H4.5259ZM2.5259 14.4845H4.27252V10.4845H2.5259V14.4845ZM4.27252 14.4845C5.59951 14.4845 6.67561 13.4088 6.67561 12.0814H2.67561C2.67561 11.1993 3.3907 10.4845 4.27252 10.4845V14.4845ZM6.67561 12.0814C6.67561 10.7542 5.59972 9.67834 4.27252 9.67834V13.6783C3.39059 13.6783 2.67561 12.9634 2.67561 12.0814H6.67561ZM4.27252 9.67834H0.403084V13.6783H4.27252V9.67834ZM0.403084 9.67834C-0.923906 9.67834 -2 10.7541 -2 12.0814H2C2 12.9635 1.28491 13.6783 0.403084 13.6783V9.67834ZM-2 12.0814C-2 13.4086 -0.924119 14.4845 0.403084 14.4845V10.4845C1.28502 10.4845 2 11.1995 2 12.0814H-2ZM0.403084 14.4845H1.71978V10.4845H0.403084V14.4845ZM-0.280221 12.4845V13.3713H3.71978V12.4845H-0.280221ZM-0.280221 13.3713C-0.280221 14.9352 0.988879 16.2043 2.5528 16.2043V12.2043C3.19802 12.2043 3.71978 12.726 3.71978 13.3713H-0.280221ZM2.5528 16.2043H4.73006V12.2043H2.5528V16.2043ZM2.73019 14.1818C2.73037 14.1658 2.73073 14.1534 2.73091 14.1477C2.731 14.1447 2.73108 14.1426 2.73109 14.1423C2.7311 14.1421 2.7311 14.142 2.73108 14.1425C2.73108 14.1427 2.73104 14.1437 2.73101 14.1446C2.73089 14.1478 2.73048 14.159 2.73012 14.1725C2.72976 14.1866 2.72936 14.2069 2.72936 14.2311H6.72936C6.72936 14.2509 6.72903 14.2667 6.72878 14.2763C6.72865 14.2812 6.72853 14.2851 6.72845 14.2874C6.72838 14.2896 6.72832 14.2911 6.72833 14.2908C6.72834 14.2905 6.72835 14.2905 6.72838 14.2896C6.7284 14.2889 6.72845 14.2877 6.72849 14.2864C6.72859 14.2838 6.72874 14.2795 6.72891 14.2743C6.72923 14.2641 6.7297 14.2473 6.72993 14.2268L2.73019 14.1818ZM2.72936 14.2311C2.72936 16.7433 4.77001 18.7839 7.2821 18.7839V14.7839C6.97909 14.7839 6.72936 14.5341 6.72936 14.2311H2.72936ZM7.2821 18.7839C9.79419 18.7839 11.8348 16.7433 11.8348 14.2311H7.83485C7.83485 14.5341 7.58511 14.7839 7.2821 14.7839V18.7839ZM11.8348 14.2311C11.8348 14.207 11.8344 14.1867 11.8341 14.1726C11.8337 14.159 11.8333 14.1478 11.8332 14.1445C11.8332 14.1436 11.8331 14.1426 11.8331 14.1424C11.8331 14.1419 11.8331 14.142 11.8331 14.1422C11.8331 14.1425 11.8332 14.1446 11.8333 14.1476C11.8335 14.1534 11.8338 14.1658 11.834 14.1818L7.83427 14.2268C7.8345 14.2473 7.83497 14.2641 7.8353 14.2743C7.83546 14.2795 7.83562 14.2839 7.83571 14.2865C7.83576 14.2878 7.8358 14.289 7.83583 14.2896C7.83586 14.2905 7.83586 14.2906 7.83587 14.2908C7.83588 14.2911 7.83582 14.2896 7.83575 14.2874C7.83567 14.285 7.83555 14.2811 7.83542 14.2762C7.83517 14.2665 7.83485 14.2508 7.83485 14.2311H11.8348ZM9.83414 16.2043H18.918V12.2043H9.83414V16.2043ZM16.9181 14.1818C16.9183 14.1658 16.9186 14.1534 16.9188 14.1477C16.9189 14.1447 16.919 14.1426 16.919 14.1422C16.919 14.142 16.919 14.142 16.919 14.1424C16.919 14.1426 16.919 14.1437 16.9189 14.1446C16.9188 14.1478 16.9184 14.1589 16.918 14.1725C16.9177 14.1866 16.9173 14.2069 16.9173 14.2311H20.9173C20.9173 14.2509 20.9169 14.2667 20.9167 14.2763C20.9166 14.2812 20.9164 14.2851 20.9164 14.2874C20.9163 14.2897 20.9162 14.2912 20.9162 14.2908C20.9163 14.2906 20.9163 14.2905 20.9163 14.2896C20.9163 14.2889 20.9164 14.2878 20.9164 14.2864C20.9165 14.2838 20.9167 14.2795 20.9168 14.2743C20.9171 14.2641 20.9176 14.2473 20.9178 14.2268L16.9181 14.1818ZM16.9173 14.2311C16.9173 16.7433 18.9579 18.7839 21.47 18.7839V14.7839C21.167 14.7839 20.9173 14.5341 20.9173 14.2311H16.9173ZM21.47 18.7839C23.9821 18.7839 26.0228 16.7433 26.0228 14.2311H22.0228C22.0228 14.5341 21.773 14.7839 21.47 14.7839V18.7839ZM26.0228 14.2311C26.0228 14.207 26.0224 14.1867 26.022 14.1725C26.0216 14.1589 26.0212 14.1477 26.0211 14.1444C26.0211 14.1436 26.021 14.1425 26.021 14.1423C26.021 14.1418 26.021 14.1419 26.021 14.1421C26.021 14.1425 26.0211 14.1446 26.0212 14.1476C26.0214 14.1533 26.0217 14.1657 26.0219 14.1818L22.0222 14.2268C22.0224 14.2473 22.0229 14.2642 22.0232 14.2744C22.0234 14.2796 22.0235 14.284 22.0236 14.2866C22.0237 14.2879 22.0237 14.289 22.0237 14.2897C22.0238 14.2906 22.0238 14.2907 22.0238 14.2909C22.0238 14.2912 22.0237 14.2897 22.0237 14.2874C22.0236 14.2851 22.0235 14.2812 22.0233 14.2763C22.0231 14.2666 22.0228 14.2508 22.0228 14.2311H26.0228ZM24.0221 16.2043H25.3395V12.2043H24.0221V16.2043ZM25.3395 16.2043C26.6665 16.2043 27.7426 15.1286 27.7426 13.8012H23.7426C23.7426 12.9191 24.4577 12.2043 25.3395 12.2043V16.2043ZM27.7426 13.8012V9.50183H23.7426V13.8012H27.7426ZM27.7426 9.50192C27.7427 7.43571 26.2213 5.72746 24.2416 5.42608L23.6396 9.38052C23.6631 9.3841 23.69 9.39686 23.7128 9.42316C23.7336 9.44705 23.7426 9.47207 23.7426 9.50173L27.7426 9.50192ZM18.8636 5.02595H21.9V1.02595H18.8636V5.02595ZM21.9 5.02595C21.2844 5.02595 20.7868 4.52832 20.7868 3.91271H24.7868C24.7868 2.31918 23.4936 1.02595 21.9 1.02595V5.02595ZM20.7868 3.91271V3.93956H24.7868V3.91271H20.7868ZM22.7868 1.93956H18.8636V5.93956H22.7868V1.93956ZM20.8636 3.93956V3.02595H16.8636V3.93956H20.8636ZM20.8636 7.37907V4.74568H16.8636V7.37907H20.8636ZM18.8636 6.74568H22.4452V2.74568H18.8636V6.74568ZM20.5049 5.23075L21.1633 7.86414L25.0439 6.894L24.3855 4.2606L20.5049 5.23075ZM23.1036 5.37907H18.8636V9.37907H23.1036V5.37907ZM7.2821 13.9779C7.42354 13.9779 7.53547 14.0898 7.53547 14.2312H3.53547C3.53547 16.299 5.21449 17.9779 7.2821 17.9779V13.9779ZM7.53547 14.2312C7.53547 14.3727 7.42355 14.4846 7.2821 14.4846V10.4846C5.21448 10.4846 3.53547 12.1635 3.53547 14.2312H7.53547ZM7.2821 14.4846C7.14065 14.4846 7.02873 14.3727 7.02873 14.2312H11.0287C11.0287 12.1635 9.34972 10.4846 7.2821 10.4846V14.4846ZM7.02873 14.2312C7.02873 14.0898 7.14066 13.9779 7.2821 13.9779V17.9779C9.34972 17.9779 11.0287 16.299 11.0287 14.2312H7.02873ZM21.4701 13.9779C21.6116 13.9779 21.7235 14.0898 21.7235 14.2312H17.7235C17.7235 16.299 19.4025 17.9779 21.4701 17.9779V13.9779ZM21.7235 14.2312C21.7235 14.3727 21.6116 14.4846 21.4701 14.4846V10.4846C19.4025 10.4846 17.7235 12.1635 17.7235 14.2312H21.7235ZM21.4701 14.4846C21.3287 14.4846 21.2167 14.3727 21.2167 14.2312H25.2167C25.2167 12.1635 23.5377 10.4846 21.4701 10.4846V14.4846ZM21.2167 14.2312C21.2167 14.0898 21.3287 13.9779 21.4701 13.9779V17.9779C23.5377 17.9779 25.2167 16.299 25.2167 14.2312H21.2167ZM24.9365 8.81858H24.4797V12.8186H24.9365V8.81858ZM24.4797 8.81858C25.3324 8.81858 26.0229 9.50907 26.0229 10.3617H22.0229C22.0229 11.7182 23.1232 12.8186 24.4797 12.8186V8.81858ZM26.0229 10.3617V9.90491H22.0229V10.3617H26.0229ZM24.0229 11.9049H24.9365V7.90491H24.0229V11.9049ZM22.9365 9.90491V10.8186H26.9365V9.90491H22.9365ZM24.9365 12.8186H24.9365V8.81858H24.9365V12.8186Z" fill="#FFAC00" mask="url(#path-1-inside-1)"/>
<path d="M7.44922 14.2315C7.44922 14.3244 7.37518 14.3984 7.28223 14.3984C7.18929 14.3984 7.11525 14.3244 7.11525 14.2315C7.11525 14.1385 7.18929 14.0645 7.28223 14.0645C7.37517 14.0645 7.44922 14.1385 7.44922 14.2315Z" stroke="#FFAC00" stroke-width="2"/>
<path d="M21.6367 14.2315C21.6367 14.3244 21.5627 14.3984 21.4697 14.3984C21.3768 14.3984 21.3028 14.3244 21.3028 14.2315C21.3028 14.1385 21.3768 14.0645 21.4697 14.0645C21.5627 14.0645 21.6367 14.1385 21.6367 14.2315Z" stroke="#FFAC00" stroke-width="2"/>
<mask id="path-5-inside-2" fill="white">
<path d="M16.7406 11.6777H10.7214C10.4989 11.6777 10.3184 11.8582 10.3184 12.0808C10.3184 12.3034 10.4988 12.4839 10.7214 12.4839H16.7406C16.9632 12.4839 17.1437 12.3034 17.1437 12.0808C17.1437 11.8582 16.9632 11.6777 16.7406 11.6777Z"/>
</mask>
<path d="M16.7406 9.67773H10.7214V13.6777H16.7406V9.67773ZM10.7214 9.67773C9.39446 9.67773 8.31836 10.7534 8.31836 12.0808H12.3184C12.3184 12.9629 11.6033 13.6777 10.7214 13.6777V9.67773ZM8.31836 12.0808C8.31836 13.408 9.39425 14.4839 10.7214 14.4839V10.4839C11.6034 10.4839 12.3184 11.1989 12.3184 12.0808H8.31836ZM10.7214 14.4839H16.7406V10.4839H10.7214V14.4839ZM16.7406 14.4839C18.0676 14.4839 19.1437 13.4082 19.1437 12.0808H15.1437C15.1437 11.1987 15.8588 10.4839 16.7406 10.4839V14.4839ZM19.1437 12.0808C19.1437 10.7536 18.0678 9.67773 16.7406 9.67773V13.6777C15.8587 13.6777 15.1437 12.9628 15.1437 12.0808H19.1437Z" fill="#FFAC00" mask="url(#path-5-inside-2)"/>
<mask id="path-7-inside-3" fill="white">
<path d="M6.42272 9.95898H1.26344C1.04085 9.95898 0.860352 10.1394 0.860352 10.3621C0.860352 10.5847 1.0408 10.7651 1.26344 10.7651H6.42272C6.64531 10.7651 6.82581 10.5847 6.82581 10.3621C6.82581 10.1394 6.64531 9.95898 6.42272 9.95898Z"/>
</mask>
<path d="M6.42272 7.95898H1.26344V11.959H6.42272V7.95898ZM1.26344 7.95898C-0.0635432 7.95898 -1.13965 9.03469 -1.13965 10.3621H2.86035C2.86035 11.2442 2.14525 11.959 1.26344 11.959V7.95898ZM-1.13965 10.3621C-1.13965 11.6893 -0.0637559 12.7651 1.26344 12.7651V8.76515C2.14536 8.76515 2.86035 9.48012 2.86035 10.3621H-1.13965ZM1.26344 12.7651H6.42272V8.76515H1.26344V12.7651ZM6.42272 12.7651C7.7497 12.7651 8.82581 11.6894 8.82581 10.3621H4.82581C4.82581 9.47995 5.54091 8.76515 6.42272 8.76515V12.7651ZM8.82581 10.3621C8.82581 9.03469 7.7497 7.95898 6.42272 7.95898V11.959C5.54091 11.959 4.82581 11.2442 4.82581 10.3621H8.82581Z" fill="#FFAC00" mask="url(#path-7-inside-3)"/>
<mask id="path-9-inside-4" fill="white">
<path d="M14.0168 4.48716C13.8594 4.32979 13.6042 4.32979 13.4468 4.48721L9.86233 8.07162L7.99765 6.20694C7.84022 6.04952 7.58501 6.04952 7.42764 6.20694C7.27021 6.36436 7.27021 6.61953 7.42764 6.77695L9.57735 8.92666C9.65603 9.0054 9.75921 9.04471 9.86233 9.04471C9.96545 9.04471 10.0687 9.0054 10.1473 8.92666L14.0167 5.05722C14.1742 4.89975 14.1742 4.64459 14.0168 4.48716Z"/>
</mask>
<path d="M14.0168 4.48716L15.4312 3.07318L15.431 3.07295L14.0168 4.48716ZM13.4468 4.48721L14.861 5.90144L14.8612 5.9012L13.4468 4.48721ZM9.86233 8.07162L8.44811 9.48584L9.86232 10.9L11.2765 9.48585L9.86233 8.07162ZM7.99765 6.20694L9.41186 4.79273V4.79273L7.99765 6.20694ZM7.42764 6.20694L8.84185 7.62116L8.84208 7.62093L7.42764 6.20694ZM7.42764 6.77695L8.84185 5.36274V5.36274L7.42764 6.77695ZM9.57735 8.92666L10.992 7.5129L10.9916 7.51245L9.57735 8.92666ZM10.1473 8.92666L8.73309 7.51245L8.73219 7.51335L10.1473 8.92666ZM14.0167 5.05722L15.431 6.47144L15.4312 6.47121L14.0167 5.05722ZM15.431 3.07295C14.4926 2.13449 12.9708 2.13449 12.0324 3.07323L14.8612 5.9012C14.2375 6.52509 13.2263 6.52509 12.6026 5.90138L15.431 3.07295ZM12.0326 3.07299L8.44812 6.6574L11.2765 9.48585L14.861 5.90144L12.0326 3.07299ZM11.2765 6.65741L9.41186 4.79273L6.58343 7.62116L8.44811 9.48584L11.2765 6.65741ZM9.41186 4.79273C8.47351 3.85438 6.95179 3.85406 6.0132 4.79295L8.84208 7.62093C8.21822 8.24498 7.20693 8.24466 6.58343 7.62116L9.41186 4.79273ZM6.01342 4.79273C5.07495 5.7312 5.07495 7.25269 6.01342 8.19116L8.84185 5.36274C9.46548 5.98636 9.46548 6.99753 8.84185 7.62116L6.01342 4.79273ZM6.01342 8.19116L8.16314 10.3409L10.9916 7.51245L8.84185 5.36274L6.01342 8.19116ZM8.16268 10.3404C8.63199 10.81 9.25091 11.0447 9.86233 11.0447V7.04471C10.2675 7.04471 10.6801 7.20077 10.992 7.5129L8.16268 10.3404ZM9.86233 11.0447C10.4734 11.0447 11.0927 10.8103 11.5624 10.34L8.73219 7.51335C9.04462 7.20052 9.45753 7.04471 9.86233 7.04471V11.0447ZM11.5615 10.3409L15.431 6.47144L12.6025 3.64301L8.73309 7.51245L11.5615 10.3409ZM15.4312 6.47121C16.3692 5.5329 16.3695 4.01176 15.4312 3.07318L12.6024 5.90115C11.9788 5.27741 11.9791 4.26659 12.6023 3.64323L15.4312 6.47121Z" fill="#FFAC00" mask="url(#path-9-inside-4)"/>
</svg>
