<svg width="144" height="54" viewBox="0 0 144 54" fill="none" xmlns="http://www.w3.org/2000/svg">
<g clip-path="url(#clip0)">
<path d="M49.1766 43.4149H48.298L44.5105 51.6482H45.4722L46.4576 49.4878H50.9811L51.9549 51.6482H52.9641L49.1766 43.4149ZM50.6132 48.6585H46.8258L48.7255 44.4893L50.6132 48.6585ZM56.3122 48.1913C56.3122 47.0586 57.0953 46.2994 58.1524 46.2994C59.2329 46.2994 59.8503 47.0002 59.8503 48.1212V51.6482H60.7639V47.8994C60.7639 46.4631 59.8971 45.4821 58.413 45.4821C57.9864 45.47 57.5646 45.5737 57.1939 45.7817C56.8233 45.9898 56.518 46.2942 56.3115 46.6616V45.6105H55.3979V51.6482H56.3115L56.3122 48.1913ZM69.0518 45.6105H68.0786L66.1073 50.6438L63.8752 45.6105H62.866L65.6558 51.6248C65.2877 52.4774 64.9433 52.7575 64.3973 52.7575C64.0625 52.7673 63.7309 52.6908 63.4355 52.5356L63.1272 53.2481C63.5309 53.4523 63.9792 53.5565 64.4332 53.5517C65.3592 53.5517 65.9528 53.0963 66.4752 51.8467L69.0518 45.6105ZM72.6848 46.4047H74.6319V45.6105H72.6848V43.7887H71.7712V45.6105H70.9163V46.4047H71.7712V50.0483C71.7712 51.2745 72.5192 51.7533 73.5046 51.7533C73.8887 51.7598 74.2683 51.6715 74.6088 51.4966V50.7263C74.3335 50.8659 74.028 50.938 73.7183 50.9365C73.101 50.9365 72.6855 50.6679 72.6855 49.9321L72.6848 46.4047ZM78.1107 48.1915C78.1107 47.0587 78.8938 46.2996 79.9509 46.2996C81.0314 46.2996 81.6488 47.0003 81.6488 48.1214V51.6482H82.5624V47.8994C82.5624 46.4631 81.6956 45.4821 80.2115 45.4821C79.7849 45.47 79.3631 45.5737 78.9924 45.7817C78.6217 45.9898 78.3165 46.2942 78.11 46.6616V43.123H77.1964V51.6482H78.11L78.1107 48.1915ZM86.5289 44.291V43.2983H85.4848V44.291H86.5289ZM86.4573 51.6482V45.6105H85.5437V51.6482H86.4573ZM90.4466 48.1915C90.4466 47.0587 91.2297 46.2996 92.2869 46.2996C93.3674 46.2996 93.9847 47.0003 93.9847 48.1214V51.6482H94.8995V47.8994C94.8995 46.4631 94.0327 45.4821 92.5486 45.4821C92.122 45.47 91.7002 45.5737 91.3295 45.7817C90.9589 45.9898 90.6536 46.2942 90.4471 46.6616V45.6105H89.5335V51.6482H90.4471L90.4466 48.1915ZM103.637 50.5971V45.6105H102.724V46.6966C102.455 46.3168 102.096 46.0075 101.678 45.7958C101.26 45.584 100.796 45.4763 100.325 45.482C99.9434 45.4777 99.5644 45.5489 99.2108 45.6914C98.8572 45.8339 98.5364 46.0448 98.2672 46.3116C97.9981 46.5784 97.7862 46.8956 97.6441 47.2445C97.5019 47.5934 97.4325 47.9667 97.4398 48.3425C97.4398 50.1059 98.8526 51.1803 100.325 51.1803C101.453 51.1803 102.201 50.608 102.735 49.9073V50.6212C102.735 52.0343 101.856 52.77 100.503 52.77C99.6511 52.7724 98.8218 52.5021 98.1402 51.9998L97.7247 52.6993C98.5437 53.2568 99.5184 53.5506 100.514 53.5401C102.403 53.5401 103.637 52.5468 103.637 50.5971ZM102.759 48.3316C102.759 49.5695 101.666 50.3869 100.503 50.3869C100.224 50.3938 99.9464 50.3453 99.687 50.2442C99.4275 50.1431 99.1914 49.9914 98.993 49.7984C98.7945 49.6054 98.6377 49.3749 98.532 49.1209C98.4263 48.8668 98.3738 48.5944 98.3777 48.3199C98.3777 47.0586 99.3395 46.2761 100.503 46.2761C101.667 46.2761 102.759 47.082 102.759 48.3316ZM111.687 48.9622H116.555C116.564 48.8691 116.568 48.7755 116.567 48.6819C116.567 46.9068 115.523 45.4821 113.706 45.4821C112.008 45.4821 110.761 46.8835 110.761 48.6352C110.761 50.5154 112.138 51.7883 113.824 51.7883C114.305 51.8009 114.783 51.7054 115.222 51.5091C115.66 51.3128 116.047 51.0209 116.353 50.6555L115.783 50.1534C115.542 50.4243 115.244 50.6408 114.91 50.788C114.576 50.9352 114.214 51.0097 113.848 51.0063C112.768 51.0063 111.818 50.2702 111.687 48.9622H111.687ZM111.687 48.2966C111.806 47.1172 112.613 46.2413 113.682 46.2413C114.905 46.2413 115.546 47.199 115.641 48.2966H111.687ZM120.117 51.6482V43.123H119.203V51.6482H120.117ZM127.407 49.9549V49.9312C127.407 48.8451 126.386 48.4831 125.436 48.2027C124.617 47.9574 123.858 47.7359 123.858 47.1637V47.1403C123.858 46.6382 124.321 46.2644 125.045 46.2644C125.694 46.288 126.323 46.4903 126.862 46.8484L127.277 46.171C126.619 45.7503 125.854 45.5197 125.069 45.5054C123.858 45.5054 122.979 46.1945 122.979 47.2338V47.2572C122.979 48.3667 124.048 48.6936 125.01 48.9622C125.817 49.1842 126.541 49.4177 126.541 50.025V50.0485C126.541 50.6324 126.007 51.0062 125.271 51.0062C124.496 50.9818 123.751 50.7116 123.145 50.2359L122.682 50.8778C123.408 51.4385 124.3 51.7502 125.222 51.765C126.445 51.765 127.407 51.0994 127.407 49.9549ZM130.601 48.9622H135.469C135.478 48.8691 135.482 48.7755 135.48 48.6819C135.48 46.9068 134.436 45.4821 132.619 45.4821C130.921 45.4821 129.675 46.8835 129.675 48.6352C129.674 50.5154 131.052 51.7883 132.738 51.7883C133.219 51.8009 133.697 51.7054 134.135 51.5091C134.573 51.3128 134.96 51.0209 135.266 50.6555L134.697 50.1534C134.455 50.4243 134.158 50.6408 133.824 50.788C133.49 50.9352 133.127 51.0097 132.761 51.0063C131.681 51.0063 130.731 50.2702 130.601 48.9622ZM130.601 48.2966C130.719 47.1172 131.527 46.2413 132.595 46.2413C133.819 46.2413 134.459 47.199 134.554 48.2966H130.601ZM139.03 47.3858L138.971 47.4442L139.149 49.3361H139.755L139.873 48.0748C141.228 47.8881 142.343 47.164 142.343 45.6925C142.343 44.3495 141.286 43.3686 139.684 43.3686C138.413 43.3686 137.57 43.9174 136.894 44.7233L137.499 45.2955C138.105 44.6064 138.782 44.1977 139.66 44.1977C140.729 44.1977 141.394 44.8751 141.394 45.7276C141.393 46.72 140.574 47.3506 139.03 47.3856L139.03 47.3858ZM139.993 51.6482V50.422H138.899V51.6482H139.993Z" fill="white"/>
<path d="M45.7866 17.1523H52.0324V24.9369L57.5084 17.1523H64.0964L57.6795 25.8205L65.3363 35.3726H57.9785L52.0321 27.4614V35.3726H45.7866V17.1523Z" fill="white"/>
<path d="M76.3323 17.1523H90.0217V21.4443H82.5791V23.9269H88.4826V28.2189H82.5791V31.0807H90.0225V35.3726H76.3323V17.1523Z" fill="white"/>
<path d="M102.858 17.1523H116.547V21.4443H109.104V23.9269H115.007V28.2189H109.104V31.0807H116.547V35.3726H102.858L102.858 17.1523Z" fill="white"/>
<path d="M127.929 33.2699L129.298 29.0619C130.838 30.1975 132.934 31.4601 135.244 31.4601C136.741 31.4601 137.512 31.1231 137.512 30.1559C137.512 29.3141 136.571 29.0195 134.346 28.5148C129.768 27.5038 128.399 25.3169 128.399 22.5394C128.399 18.8367 131.308 16.7324 135.629 16.7324C137.964 16.7328 140.25 17.3898 142.217 18.626L140.977 22.5816C139.479 21.7399 137.469 21.025 135.544 21.025C134.517 21.025 133.961 21.362 133.961 21.9506C133.961 22.5816 134.517 22.9186 136.229 23.2971C141.148 24.3912 143.073 26.158 143.073 29.5665C143.073 34.2372 139.309 35.752 135.245 35.752C132.591 35.761 130.013 34.8861 127.929 33.2699Z" fill="white"/>
<path d="M6.87573 13.0797V6.36582L7.46697 5.49414H13.7461V13.0797H6.87573Z" fill="#BBB9B9"/>
<path d="M23.4995 13.0797V5.49414H29.7781L30.3693 6.36582V13.0797H23.4995Z" fill="#A1A1A1"/>
<path d="M6.87573 6.36623L10.4225 1.13329C10.544 0.95416 10.7086 0.807283 10.9016 0.705674C11.0946 0.604065 11.3102 0.550861 11.5291 0.550781H25.7158C25.9347 0.550805 26.1503 0.603981 26.3433 0.705595C26.5363 0.807209 26.7009 0.95412 26.8224 1.13329L30.369 6.36623H6.87573Z" fill="#A1A1A1"/>
<path d="M25.7161 0.550781H18.6228V6.36623H30.3692L26.8226 1.13329C26.7011 0.954193 26.5365 0.807334 26.3435 0.705728C26.1505 0.604121 25.935 0.550902 25.7161 0.550781Z" fill="#8B8A88"/>
<path d="M1.94565 13.0801H14.2436C14.3909 13.08 14.5348 13.123 14.6572 13.2034C14.7797 13.2838 14.8751 13.3982 14.9314 13.532C14.9878 13.6658 15.0025 13.8131 14.9738 13.9551C14.945 14.0972 14.8741 14.2276 14.7699 14.33L0.0727539 28.7858L0.0818899 14.9115C0.0824088 14.4256 0.278992 13.9598 0.628453 13.6164C0.977915 13.273 1.45167 13.0801 1.94565 13.0801Z" fill="#FFAC00"/>
<path d="M0.54163 35.6743L23.5123 13.0801H34.7826C35.1507 13.0801 35.5105 13.1874 35.8166 13.3886C36.1226 13.5897 36.3611 13.8756 36.502 14.2101C36.6428 14.5445 36.6797 14.9126 36.6079 15.2677C36.5361 15.6228 36.3588 15.9489 36.0986 16.2049L0.0727539 51.6411L0.105383 36.7074C0.106205 36.3199 0.26306 35.9484 0.54163 35.6743Z" fill="#FFAC00"/>
<path d="M35.3077 51.6405H24.0258C23.8284 51.6404 23.6391 51.5633 23.4995 51.4261L11.895 40.0118L19.9352 32.1035L36.6229 48.5147C36.8835 48.7706 37.061 49.0968 37.133 49.4519C37.205 49.8071 37.1683 50.1753 37.0275 50.51C36.8867 50.8446 36.6481 51.1307 36.342 51.3319C36.0358 51.5331 35.6759 51.6405 35.3077 51.6405Z" fill="#FFAC00"/>
<path d="M13.5331 51.642H0.0727539L8.60274 43.252L14.5864 49.1427C14.7945 49.3475 14.9362 49.6084 14.9935 49.8925C15.0508 50.1765 15.0213 50.4709 14.9086 50.7384C14.7958 51.0059 14.605 51.2345 14.3602 51.3954C14.1153 51.5562 13.8275 51.642 13.5331 51.642Z" fill="#FFAC00"/>
<g style="mix-blend-mode:multiply">
<path d="M19.9354 32.1035L24.6615 36.7522L0.0727539 51.6413L19.9354 32.1035Z" fill="#D1D1D1"/>
</g>
</g>
<defs>
<clipPath id="clip0">
<rect width="143" height="53" fill="white" transform="translate(0.0727539 0.550781)"/>
</clipPath>
</defs>
</svg>
