<svg width="10" height="10" viewBox="0 0 10 10" fill="none" xmlns="http://www.w3.org/2000/svg">
<path d="M7.80303 0.105469H1.33919C0.600823 0.105469 0 0.706292 0 1.44466V7.9085C0 8.64686 0.600823 9.24769 1.33919 9.24769H7.80303C8.5414 9.24769 9.14222 8.64686 9.14222 7.9085V1.44466C9.14222 0.706292 8.5414 0.105469 7.80303 0.105469ZM4.58897 7.06927C3.25975 7.06927 2.17842 5.98794 2.17842 4.65872C2.17842 3.3295 3.25975 2.24818 4.58897 2.24818C5.91818 2.24818 6.99951 3.3295 6.99951 4.65872C6.99951 5.98794 5.91818 7.06927 4.58897 7.06927ZM7.26735 2.78385C6.8243 2.78385 6.46383 2.42339 6.46383 1.98034C6.46383 1.53729 6.8243 1.17682 7.26735 1.17682C7.7104 1.17682 8.07087 1.53729 8.07087 1.98034C8.07087 2.42339 7.7104 2.78385 7.26735 2.78385Z" fill="#7C7C7C"/>
<path d="M7.26784 1.73438C7.12004 1.73438 7 1.85441 7 2.00221C7 2.15001 7.12004 2.27005 7.26784 2.27005C7.41564 2.27005 7.53568 2.15001 7.53568 2.00221C7.53568 1.85441 7.41564 1.73438 7.26784 1.73438Z" fill="#7C7C7C"/>
<path d="M4.58874 2.7832C3.55505 2.7832 2.71387 3.62438 2.71387 4.65807C2.71387 5.69176 3.55505 6.53294 4.58874 6.53294C5.62243 6.53294 6.46361 5.69176 6.46361 4.65807C6.46361 3.62438 5.62243 2.7832 4.58874 2.7832Z" fill="#7C7C7C"/>
</svg>
