<svg width="13" height="13" viewBox="0 0 13 13" fill="none" xmlns="http://www.w3.org/2000/svg">
<path d="M6.19775 3.56055C5.63265 3.56055 5.104 3.70638 4.61182 3.99805C4.13786 4.27148 3.75505 4.6543 3.46338 5.14648C3.18994 5.62044 3.05322 6.13997 3.05322 6.70508C3.05322 7.27018 3.18994 7.79883 3.46338 8.29102C3.75505 8.76497 4.13786 9.14779 4.61182 9.43945C5.104 9.71289 5.63265 9.84961 6.19775 9.84961C6.76286 9.84961 7.28239 9.71289 7.75635 9.43945C8.24854 9.14779 8.63135 8.76497 8.90479 8.29102C9.19645 7.79883 9.34229 7.27018 9.34229 6.70508C9.34229 6.13997 9.19645 5.62044 8.90479 5.14648C8.63135 4.6543 8.24854 4.27148 7.75635 3.99805C7.28239 3.70638 6.76286 3.56055 6.19775 3.56055ZM6.19775 8.75586C5.63265 8.75586 5.14958 8.55534 4.74854 8.1543C4.34749 7.75326 4.14697 7.27018 4.14697 6.70508C4.14697 6.13997 4.34749 5.6569 4.74854 5.25586C5.14958 4.85482 5.63265 4.6543 6.19775 4.6543C6.76286 4.6543 7.24593 4.85482 7.64697 5.25586C8.04801 5.6569 8.24854 6.13997 8.24854 6.70508C8.24854 7.27018 8.04801 7.75326 7.64697 8.1543C7.24593 8.55534 6.76286 8.75586 6.19775 8.75586ZM10.2173 3.42383C10.1991 3.62435 10.117 3.79753 9.97119 3.94336C9.84359 4.08919 9.67952 4.16211 9.479 4.16211C9.27848 4.16211 9.10531 4.08919 8.95947 3.94336C8.81364 3.79753 8.74072 3.62435 8.74072 3.42383C8.74072 3.22331 8.81364 3.05013 8.95947 2.9043C9.10531 2.75846 9.27848 2.68555 9.479 2.68555C9.67952 2.68555 9.8527 2.75846 9.99854 2.9043C10.1444 3.05013 10.2173 3.22331 10.2173 3.42383ZM12.2954 4.16211C12.259 3.63346 12.1769 3.17773 12.0493 2.79492C11.8853 2.33919 11.63 1.94727 11.2837 1.61914C10.9556 1.27279 10.5636 1.01758 10.1079 0.853516C9.7251 0.725911 9.26937 0.652995 8.74072 0.634766C8.23031 0.598307 7.38265 0.580078 6.19775 0.580078C5.01286 0.580078 4.15609 0.598307 3.62744 0.634766C3.11702 0.652995 2.67041 0.725911 2.2876 0.853516C1.83187 1.01758 1.43083 1.27279 1.08447 1.61914C0.756348 1.94727 0.510254 2.33919 0.346191 2.79492C0.218587 3.17773 0.136556 3.63346 0.100098 4.16211C0.0818685 4.67253 0.0727539 5.52018 0.0727539 6.70508C0.0727539 7.88997 0.0818685 8.74674 0.100098 9.27539C0.136556 9.78581 0.218587 10.2324 0.346191 10.6152C0.510254 11.071 0.756348 11.472 1.08447 11.8184C1.43083 12.1465 1.83187 12.3835 2.2876 12.5293C2.67041 12.6751 3.11702 12.7572 3.62744 12.7754C4.15609 12.8118 5.01286 12.8301 6.19775 12.8301C7.38265 12.8301 8.23031 12.8118 8.74072 12.7754C9.26937 12.7572 9.7251 12.6842 10.1079 12.5566C10.5636 12.3926 10.9556 12.1465 11.2837 11.8184C11.63 11.472 11.8853 11.071 12.0493 10.6152C12.1769 10.2324 12.2498 9.78581 12.2681 9.27539C12.3045 8.74674 12.3228 7.88997 12.3228 6.70508C12.3228 5.52018 12.3136 4.67253 12.2954 4.16211ZM10.9829 10.3145C10.7642 10.8613 10.3722 11.2533 9.80713 11.4902C9.51546 11.5996 9.02327 11.6725 8.33057 11.709C7.94775 11.7272 7.38265 11.7363 6.63525 11.7363H5.76025C5.03109 11.7363 4.46598 11.7272 4.06494 11.709C3.39046 11.6725 2.89827 11.5996 2.58838 11.4902C2.0415 11.2715 1.64958 10.8796 1.4126 10.3145C1.30322 10.0046 1.23031 9.51237 1.19385 8.83789C1.17562 8.43685 1.1665 7.87174 1.1665 7.14258V6.26758C1.1665 5.53841 1.17562 4.97331 1.19385 4.57227C1.23031 3.87956 1.30322 3.38737 1.4126 3.0957C1.63135 2.5306 2.02327 2.13867 2.58838 1.91992C2.89827 1.81055 3.39046 1.73763 4.06494 1.70117C4.46598 1.68294 5.03109 1.67383 5.76025 1.67383H6.63525C7.36442 1.67383 7.92952 1.68294 8.33057 1.70117C9.02327 1.73763 9.51546 1.81055 9.80713 1.91992C10.3722 2.13867 10.7642 2.5306 10.9829 3.0957C11.0923 3.38737 11.1652 3.87956 11.2017 4.57227C11.2199 4.95508 11.229 5.52018 11.229 6.26758V7.14258C11.229 7.87174 11.2199 8.43685 11.2017 8.83789C11.1652 9.51237 11.0923 10.0046 10.9829 10.3145Z" fill="#CAD1D8"/>
</svg>
