<svg xmlns="http://www.w3.org/2000/svg" xmlns:xlink="http://www.w3.org/1999/xlink" viewBox="0, 0, 400,533.3333333333334" version="1.1">
<path d="M194.713 67.517 C 192.551 68.299,187.407 72.989,185.219 76.171 C 184.474 77.255,183.013 79.081,181.973 80.230 C 180.933 81.379,179.618 83.109,179.051 84.076 C 178.485 85.043,177.467 86.243,176.790 86.744 C 176.113 87.244,175.014 88.540,174.348 89.622 C 173.682 90.704,172.607 91.968,171.959 92.429 C 171.311 92.890,170.180 94.198,169.445 95.334 C 168.710 96.470,167.615 97.850,167.012 98.400 C 166.409 98.950,165.364 100.210,164.691 101.200 C 164.018 102.190,162.723 103.810,161.814 104.800 C 160.905 105.790,159.391 107.736,158.449 109.125 C 157.507 110.513,156.487 111.745,156.182 111.862 C 155.878 111.979,154.960 113.093,154.143 114.337 C 153.325 115.582,151.976 117.193,151.144 117.918 C 150.312 118.643,149.235 119.941,148.750 120.804 C 148.265 121.666,147.177 122.927,146.332 123.607 C 145.487 124.286,144.452 125.507,144.033 126.321 C 143.613 127.134,142.611 128.430,141.806 129.200 C 141.001 129.970,139.615 131.680,138.725 133.000 C 137.835 134.320,136.345 136.210,135.414 137.200 C 134.484 138.190,133.325 139.667,132.839 140.483 C 132.353 141.299,131.449 142.393,130.829 142.914 C 130.210 143.435,129.024 144.838,128.195 146.031 C 127.365 147.224,126.108 148.687,125.401 149.281 C 119.992 153.833,119.937 165.165,125.300 170.494 C 130.446 175.608,139.553 176.262,143.776 171.821 C 144.669 170.881,145.989 169.712,146.709 169.223 C 147.429 168.733,148.374 167.636,148.808 166.784 C 149.243 165.932,150.237 164.733,151.018 164.118 C 151.799 163.503,152.821 162.370,153.289 161.600 C 153.757 160.830,154.973 159.300,155.992 158.200 C 157.010 157.100,158.580 155.120,159.480 153.800 C 160.380 152.480,161.691 150.860,162.394 150.200 C 163.096 149.540,163.951 148.465,164.292 147.812 C 164.633 147.158,165.846 145.628,166.987 144.412 C 168.128 143.195,169.444 141.570,169.912 140.800 C 170.379 140.030,171.401 138.897,172.182 138.282 C 172.963 137.667,173.960 136.463,174.397 135.605 C 174.835 134.748,175.821 133.567,176.590 132.980 C 177.359 132.394,178.387 131.268,178.875 130.479 C 181.414 126.370,182.390 125.845,183.667 127.900 L 184.600 129.400 184.800 227.668 L 185.000 325.936 185.970 326.968 L 186.939 328.000 200.200 328.000 L 213.461 328.000 214.430 326.968 L 215.400 325.936 215.600 227.868 C 215.793 133.065,215.825 129.750,216.549 128.294 C 217.818 125.739,218.554 125.996,221.049 129.866 C 221.782 131.002,222.911 132.310,223.559 132.771 C 224.207 133.232,225.282 134.496,225.948 135.578 C 226.614 136.660,227.726 137.963,228.419 138.473 C 229.111 138.983,230.123 140.158,230.667 141.083 C 231.211 142.009,232.307 143.338,233.103 144.036 C 233.898 144.735,235.216 146.339,236.032 147.601 C 236.847 148.862,237.896 150.162,238.363 150.489 C 238.829 150.816,239.946 152.144,240.845 153.441 C 241.743 154.739,243.155 156.520,243.983 157.400 C 244.810 158.280,246.084 159.888,246.813 160.973 C 247.543 162.059,248.736 163.471,249.465 164.111 C 250.194 164.751,251.191 165.987,251.680 166.857 C 252.169 167.727,253.116 168.779,253.785 169.194 C 254.453 169.608,255.778 170.766,256.729 171.766 C 262.005 177.317,274.706 174.620,277.681 167.318 C 279.962 161.717,279.998 161.546,279.448 159.000 C 278.501 154.619,276.760 150.833,274.870 149.044 C 273.914 148.140,272.679 146.633,272.126 145.696 C 271.572 144.758,270.532 143.498,269.814 142.896 C 269.096 142.293,268.009 140.990,267.399 140.000 C 266.788 139.010,265.540 137.390,264.625 136.400 C 263.710 135.410,262.201 133.479,261.272 132.110 C 260.343 130.740,259.217 129.423,258.770 129.184 C 258.323 128.945,257.358 127.816,256.626 126.675 C 255.893 125.534,254.653 124.020,253.871 123.312 C 253.088 122.604,251.992 121.246,251.435 120.295 C 250.877 119.344,249.881 118.166,249.220 117.678 C 248.558 117.189,247.408 115.847,246.663 114.695 C 245.918 113.543,244.814 112.150,244.210 111.600 C 243.605 111.050,242.389 109.543,241.507 108.251 C 240.625 106.959,239.034 104.942,237.971 103.768 C 236.908 102.594,235.763 101.102,235.427 100.453 C 235.091 99.803,234.213 98.761,233.475 98.136 C 232.737 97.511,231.569 96.166,230.879 95.146 C 230.189 94.126,229.091 92.843,228.438 92.293 C 227.785 91.744,226.695 90.391,226.015 89.287 C 225.336 88.182,224.341 86.992,223.806 86.640 C 223.270 86.289,222.121 84.967,221.254 83.701 C 220.386 82.435,218.838 80.428,217.814 79.239 C 216.789 78.050,215.404 76.241,214.734 75.218 C 214.064 74.195,212.898 72.934,212.142 72.417 C 211.387 71.899,210.229 70.794,209.569 69.961 C 207.210 66.983,199.631 65.736,194.713 67.517 M95.400 200.405 C 91.592 200.751,89.473 201.300,87.667 202.410 C 86.933 202.860,84.598 203.940,82.478 204.810 C 79.375 206.082,78.331 206.732,77.128 208.140 C 76.305 209.102,75.130 210.098,74.516 210.353 C 73.902 210.608,72.950 211.487,72.400 212.307 C 71.850 213.127,70.481 214.717,69.358 215.841 C 68.235 216.965,67.196 218.406,67.049 219.043 C 66.902 219.679,65.797 222.180,64.592 224.600 C 61.441 230.931,61.607 224.708,61.604 336.200 C 61.600 447.474,61.427 441.022,64.596 447.400 C 65.799 449.820,66.906 452.333,67.056 452.984 C 67.206 453.636,68.167 454.986,69.191 455.984 C 70.215 456.983,71.453 458.462,71.941 459.270 C 72.429 460.079,73.626 461.208,74.601 461.779 C 75.575 462.350,76.838 463.427,77.405 464.172 C 78.160 465.161,79.322 465.879,81.719 466.837 C 83.524 467.559,86.080 468.737,87.400 469.456 C 91.929 471.922,86.059 471.800,200.600 471.800 C 315.725 471.800,308.767 471.943,312.661 469.489 C 313.507 468.956,315.775 467.922,317.699 467.191 C 320.288 466.208,321.569 465.462,322.627 464.319 C 323.412 463.470,324.750 462.337,325.599 461.801 C 326.448 461.264,327.471 460.345,327.872 459.757 C 328.272 459.169,329.510 457.678,330.623 456.444 C 332.034 454.879,332.989 453.293,333.781 451.200 C 334.405 449.550,335.512 447.210,336.241 446.000 C 338.470 442.302,338.394 446.198,338.397 336.277 C 338.400 225.542,338.489 229.947,336.174 225.790 C 335.436 224.465,334.360 222.125,333.782 220.591 C 333.052 218.651,332.103 217.117,330.666 215.556 C 329.530 214.322,328.272 212.831,327.872 212.243 C 327.471 211.655,326.391 210.703,325.472 210.128 C 324.552 209.552,323.213 208.402,322.495 207.571 C 321.619 206.558,320.500 205.832,319.095 205.366 C 316.505 204.506,314.729 203.699,312.400 202.323 C 309.088 200.366,308.139 200.306,277.564 200.119 L 248.928 199.944 247.664 201.008 L 246.400 202.071 246.400 215.391 C 246.400 227.908,246.446 228.768,247.164 229.656 L 247.929 230.600 274.464 230.800 C 305.425 231.033,304.584 230.904,306.844 235.800 C 307.738 237.737,308.040 432.199,307.154 435.391 C 306.578 437.465,304.218 439.803,302.134 440.364 C 300.957 440.681,272.102 440.776,199.517 440.702 L 98.537 440.600 96.591 439.396 C 95.208 438.542,94.348 437.618,93.622 436.207 L 92.600 434.221 92.495 337.211 C 92.421 269.523,92.519 239.574,92.817 238.129 C 93.386 235.375,95.076 233.129,97.464 231.953 L 99.400 231.000 125.659 230.884 L 151.918 230.768 152.959 229.803 L 154.000 228.838 154.000 215.455 L 154.000 202.071 152.769 201.036 L 151.539 200.000 125.069 200.057 C 110.511 200.089,97.160 200.246,95.400 200.405 " stroke="none" fill="#0079ff" fill-rule="evenodd"></path>
</svg>