<svg width="144" height="52" viewBox="0 0 144 52" fill="none" xmlns="http://www.w3.org/2000/svg">
<path d="M45.7866 17.1523H52.0324V24.9369L57.5084 17.1523H64.0964L57.6795 25.8205L65.3363 35.3726H57.9785L52.0321 27.4614V35.3726H45.7866V17.1523Z" fill="white"/>
<path d="M76.3323 17.1523H90.0217V21.4443H82.5791V23.9269H88.4826V28.2189H82.5791V31.0807H90.0225V35.3726H76.3323V17.1523Z" fill="white"/>
<path d="M102.858 17.1523H116.547V21.4443H109.104V23.9269H115.007V28.2189H109.104V31.0807H116.547V35.3726H102.858L102.858 17.1523Z" fill="white"/>
<path d="M127.929 33.2699L129.298 29.0619C130.838 30.1975 132.934 31.4601 135.244 31.4601C136.741 31.4601 137.512 31.1231 137.512 30.1559C137.512 29.3141 136.571 29.0195 134.346 28.5148C129.768 27.5038 128.399 25.3169 128.399 22.5394C128.399 18.8367 131.308 16.7324 135.629 16.7324C137.964 16.7328 140.25 17.3898 142.217 18.626L140.977 22.5816C139.479 21.7399 137.469 21.025 135.544 21.025C134.517 21.025 133.961 21.362 133.961 21.9506C133.961 22.5816 134.517 22.9186 136.229 23.2971C141.148 24.3912 143.073 26.158 143.073 29.5665C143.073 34.2372 139.309 35.752 135.245 35.752C132.591 35.761 130.013 34.8861 127.929 33.2699Z" fill="white"/>
<path d="M6.87573 13.0797V6.36582L7.46697 5.49414H13.7461V13.0797H6.87573Z" fill="#BBB9B9"/>
<path d="M23.4995 13.0797V5.49414H29.7781L30.3693 6.36582V13.0797H23.4995Z" fill="#A1A1A1"/>
<path d="M6.87573 6.36623L10.4225 1.13329C10.544 0.95416 10.7086 0.807283 10.9016 0.705674C11.0946 0.604065 11.3102 0.550861 11.5291 0.550781H25.7158C25.9347 0.550805 26.1503 0.603981 26.3433 0.705595C26.5363 0.807209 26.7009 0.95412 26.8224 1.13329L30.369 6.36623H6.87573Z" fill="#A1A1A1"/>
<path d="M25.7161 0.550781H18.6228V6.36623H30.3692L26.8226 1.13329C26.7011 0.954193 26.5365 0.807334 26.3435 0.705728C26.1505 0.604121 25.935 0.550902 25.7161 0.550781Z" fill="#8B8A88"/>
<path d="M1.94565 13.0801H14.2436C14.3909 13.08 14.5348 13.123 14.6572 13.2034C14.7797 13.2838 14.8751 13.3982 14.9314 13.532C14.9878 13.6658 15.0025 13.8131 14.9738 13.9551C14.945 14.0972 14.8741 14.2276 14.7699 14.33L0.0727539 28.7858L0.0818899 14.9115C0.0824088 14.4256 0.278992 13.9598 0.628453 13.6164C0.977915 13.273 1.45167 13.0801 1.94565 13.0801Z" fill="#FFAC00"/>
<path d="M0.54163 35.6743L23.5123 13.0801H34.7826C35.1507 13.0801 35.5105 13.1874 35.8166 13.3886C36.1226 13.5897 36.3611 13.8756 36.502 14.2101C36.6428 14.5445 36.6797 14.9126 36.6079 15.2677C36.5361 15.6228 36.3588 15.9489 36.0986 16.2049L0.0727539 51.6411L0.105383 36.7074C0.106205 36.3199 0.26306 35.9484 0.54163 35.6743Z" fill="#FFAC00"/>
<path d="M35.3077 51.6405H24.0258C23.8284 51.6404 23.6391 51.5633 23.4995 51.4261L11.895 40.0118L19.9352 32.1035L36.6229 48.5147C36.8835 48.7706 37.061 49.0968 37.133 49.4519C37.205 49.8071 37.1683 50.1753 37.0275 50.51C36.8867 50.8446 36.6481 51.1307 36.342 51.3319C36.0358 51.5331 35.6759 51.6405 35.3077 51.6405Z" fill="#FFAC00"/>
<path d="M13.5331 51.642H0.0727539L8.60274 43.252L14.5864 49.1427C14.7945 49.3475 14.9362 49.6084 14.9935 49.8925C15.0508 50.1765 15.0213 50.4709 14.9086 50.7384C14.7958 51.0059 14.605 51.2345 14.3602 51.3954C14.1153 51.5562 13.8275 51.642 13.5331 51.642Z" fill="#FFAC00"/>
<g style="mix-blend-mode:multiply">
<path d="M19.9354 32.1035L24.6615 36.7522L0.0727539 51.6413L19.9354 32.1035Z" fill="#D1D1D1"/>
</g>
</svg>
