<svg width="13" height="13" viewBox="0 0 13 13" fill="none" xmlns="http://www.w3.org/2000/svg">
<path d="M2.80713 12.9551H0.26416V4.7793H2.80713V12.9551ZM1.54932 3.6582C1.14827 3.6582 0.801921 3.51237 0.510254 3.2207C0.218587 2.92904 0.0727539 2.58268 0.0727539 2.18164C0.0727539 1.7806 0.218587 1.43424 0.510254 1.14258C0.801921 0.850911 1.14827 0.705078 1.54932 0.705078C1.95036 0.705078 2.29671 0.850911 2.58838 1.14258C2.88005 1.43424 3.02588 1.7806 3.02588 2.18164C3.02588 2.58268 2.88005 2.92904 2.58838 3.2207C2.29671 3.51237 1.95036 3.6582 1.54932 3.6582ZM12.3228 12.9551H9.77979V8.96289C9.77979 8.30664 9.7251 7.83268 9.61572 7.54102C9.4152 7.04883 9.02327 6.80273 8.43994 6.80273C7.85661 6.80273 7.44645 7.02148 7.20947 7.45898C7.02718 7.78711 6.93604 8.27018 6.93604 8.9082V12.9551H4.42041V4.7793H6.854V5.90039H6.88135C7.06364 5.53581 7.35531 5.23503 7.75635 4.99805C8.19385 4.70638 8.70426 4.56055 9.2876 4.56055C10.4725 4.56055 11.3019 4.93424 11.7759 5.68164C12.1405 6.2832 12.3228 7.21289 12.3228 8.4707V12.9551Z" fill="#CAD1D8"/>
</svg>
