<svg width="10" height="12" viewBox="0 0 10 12" fill="none" xmlns="http://www.w3.org/2000/svg">
<path d="M9.99757 11.1059V11.1055H10.0001V7.43799C10.0001 5.64381 9.61382 4.26172 7.5163 4.26172C6.50796 4.26172 5.83129 4.81506 5.55504 5.33964H5.52587V4.42922H3.53711V11.1055H5.60796V7.79965C5.60796 6.92923 5.77296 6.08756 6.85088 6.08756C7.91297 6.08756 7.9288 7.0809 7.9288 7.85549V11.1059H9.99757Z" fill="#7C7C7C"/>
<path d="M0.165039 4.42969H2.23838V11.106H0.165039V4.42969Z" fill="#7C7C7C"/>
<path d="M1.20084 0.105469C0.53792 0.105469 0 0.643388 0 1.30631C0 1.96923 0.53792 2.5184 1.20084 2.5184C1.86376 2.5184 2.40168 1.96923 2.40168 1.30631C2.40126 0.643388 1.86334 0.105469 1.20084 0.105469V0.105469Z" fill="#7C7C7C"/>
</svg>
