<svg width="15" height="19" viewBox="0 0 15 19" fill="none" xmlns="http://www.w3.org/2000/svg">
<path d="M7.41554 17.4061L7.4156 17.4061C7.72928 17.1036 9.28114 15.5777 10.7509 13.6218C11.4858 12.6438 12.1921 11.569 12.713 10.4944C13.2365 9.41454 13.5557 8.3693 13.5557 7.44141C13.5557 5.78979 12.8754 4.20198 11.6583 3.02836C10.4406 1.85414 8.78532 1.19141 7.05566 1.19141C5.32601 1.19141 3.67069 1.85414 2.45298 3.02836C1.2359 4.20198 0.555664 5.78979 0.555664 7.44141C0.555664 8.3693 0.874871 9.41454 1.39831 10.4944C1.91919 11.569 2.62551 12.6438 3.36038 13.6218C4.83019 15.5777 6.38205 17.1036 6.69573 17.4061L6.69579 17.4061C6.78821 17.4953 6.91729 17.5485 7.05556 17.5486L7.41554 17.4061ZM7.41554 17.4061C7.32312 17.4953 7.19404 17.5485 7.05577 17.5486L7.41554 17.4061Z" stroke="#2E2E2D"/>
<path d="M9.13885 6.12123C9.41125 6.51434 9.55542 6.97451 9.55542 7.44364C9.55542 8.07228 9.29662 8.67901 8.82967 9.12928C8.36211 9.58014 7.72421 9.8365 7.05542 9.8365C6.55701 9.8365 6.07119 9.6939 5.65952 9.42865L5.38871 9.84896L5.65952 9.42865C5.24804 9.16353 4.93015 8.78857 4.74319 8.35335C4.55634 7.91835 4.50776 7.4408 4.60276 6.98028C4.69778 6.51963 4.93283 6.0939 5.28117 5.758C5.62971 5.42191 6.07594 5.1911 6.56434 5.09742C7.05281 5.00372 7.55894 5.05196 8.01801 5.23532C8.47694 5.41863 8.86629 5.72788 9.13885 6.12123Z" stroke="#2E2E2D"/>
</svg>
