<svg width="17" height="18" viewBox="0 0 17 18" fill="none" xmlns="http://www.w3.org/2000/svg">
<path d="M10.4812 13.7504C9.97381 13.2449 9.54651 12.6654 9.21548 12.0341C9.06512 11.7345 8.76484 11.5348 8.43615 11.5158L6.81537 11.2483C6.28505 9.75076 6.24376 8.14665 6.69767 6.67423L8.26642 6.49235C8.60794 6.50099 8.91589 6.31826 9.06466 6.01876C9.36375 5.40237 9.76216 4.84297 10.2448 4.36176C10.5891 4.01745 10.5744 3.4445 10.2119 3.08206L8.68067 1.55079C8.31823 1.18835 7.74529 1.17366 7.40097 1.51798C3.39063 5.53795 3.56188 12.2168 7.78379 16.4478C8.14623 16.8103 8.71917 16.8249 9.06349 16.4806L10.514 15.0301C10.8583 14.6858 10.8437 14.1128 10.4812 13.7504Z" fill="white"/>
</svg>
