<svg width="33" height="35" viewBox="0 0 33 35" fill="none" xmlns="http://www.w3.org/2000/svg">
<path d="M31.3121 18.0612L30.5419 17.671C30.5475 17.1087 30.539 16.598 30.5419 16.1172C30.5419 13.6433 29.9277 11.2133 28.7634 9.06444C29.0356 8.65893 29.0491 8.11788 28.773 7.69111C27.7498 6.10884 26.466 4.75253 24.9573 3.65979C23.9692 2.94411 22.8991 2.3562 21.7768 1.91227C21.5279 1.81382 21.249 1.94252 21.1537 2.19964C21.0584 2.45684 21.183 2.74508 21.4318 2.84353C22.4802 3.25821 23.4801 3.80757 24.4034 4.47639C25.8139 5.49799 27.0141 6.76602 27.9707 8.24519C28.031 8.33845 28.0169 8.4613 27.9371 8.53728C27.864 8.59711 26.2527 10.1635 26.1552 10.2244C26.1062 10.2498 26.0589 10.2492 26.0311 10.2453C25.9918 10.2398 25.9184 10.2182 25.8685 10.1354C25.235 9.08325 24.4441 8.14913 23.5177 7.35879C21.5554 5.68466 19.0744 4.76263 16.5317 4.76263C13.858 4.76263 11.2796 5.77054 9.27129 7.60077C8.48078 8.3211 7.79526 9.15245 7.23364 10.0716C7.18726 10.1474 7.11701 10.1661 7.07918 10.1704C7.03962 10.1751 6.96358 10.1726 6.89822 10.105L5.22296 8.37382C5.14833 8.29664 5.13784 8.17505 5.19806 8.08458C5.90835 7.01797 6.75617 6.05513 7.718 5.22278C10.186 3.0873 13.3161 1.9112 16.5318 1.9112C17.4162 1.9112 18.3012 1.99895 19.1623 2.17206C19.4238 2.22464 19.6771 2.04815 19.728 1.77785C19.7789 1.50756 19.6081 1.24584 19.3465 1.19326C18.4249 1.00799 17.4779 0.914062 16.5318 0.914062C13.09 0.914062 9.73988 2.17285 7.09848 4.45844C6.06975 5.34869 5.16287 6.3786 4.40311 7.51946C4.11214 7.95648 4.13015 8.52957 4.4291 8.94405C3.94996 9.79335 3.55419 10.6885 3.25144 11.6106C3.16582 11.8713 3.30104 12.1544 3.55335 12.2429C3.60475 12.2609 3.65699 12.2695 3.70839 12.2695C3.90943 12.2695 4.09708 12.1386 4.16528 11.931C4.41874 11.159 4.7431 10.4074 5.13025 9.68825L6.16059 10.753C5.34229 12.4451 4.91095 14.3291 4.91095 16.2292V26.6091L2.24652 25.2592C1.93264 25.1002 1.7298 24.7641 1.7298 24.4029V19.8128C1.7298 19.4516 1.93264 19.1155 2.24652 18.9565C2.40941 18.8665 2.73808 18.7184 3.01007 18.5695C3.30407 18.4065 3.48671 18.091 3.48671 17.7461V16.2352C3.48323 15.5937 3.52608 14.9461 3.61402 14.3107C3.65178 14.038 3.4685 13.7855 3.20474 13.7466C2.9413 13.7075 2.69658 13.8969 2.65882 14.1695C2.56412 14.8534 2.51806 15.5503 2.52173 16.238V17.7084C2.40104 17.7773 2.00013 17.9645 1.80417 18.0702C1.17218 18.399 0.764893 19.0807 0.764893 19.8128V24.4029C0.764893 25.1417 1.17977 25.8293 1.82173 26.1546L5.04012 27.7851C5.37838 28.8457 6.3458 29.6138 7.48415 29.6138C8.90299 29.6138 10.0573 28.4211 10.0573 26.955V17.987C10.0573 16.5209 8.90299 15.3281 7.48415 15.3281C6.87828 15.3281 6.32103 15.5461 5.88088 15.9096C5.92642 14.2615 6.32309 12.6357 7.03788 11.1687C7.0871 11.1693 7.13657 11.1671 7.1863 11.1614C7.54366 11.1201 7.85837 10.917 8.04969 10.6038C8.56222 9.76496 9.18804 9.00614 9.90965 8.34856C11.7416 6.67914 14.0933 5.75971 16.5318 5.75971C18.8507 5.75971 21.1135 6.60063 22.9034 8.12766C23.7491 8.84912 24.471 9.70174 25.0492 10.662C25.2381 10.9758 25.5488 11.184 25.9017 11.2334C25.955 11.2408 26.0082 11.2445 26.0611 11.2445C26.0844 11.2445 26.1075 11.2425 26.1306 11.2411C26.8232 12.6888 27.2082 14.2891 27.253 15.9096C26.8129 15.5461 26.2556 15.328 25.6497 15.328C24.2309 15.328 23.0766 16.5208 23.0766 17.9869V19.4822C23.0766 19.7575 23.2926 19.9808 23.5591 19.9808C23.8255 19.9808 24.0415 19.7575 24.0415 19.4822V17.9869C24.0415 17.0706 24.763 16.3252 25.6497 16.3252C26.5365 16.3252 27.2579 17.0706 27.2579 17.9869V26.9549C27.2579 27.8711 26.5365 28.6166 25.6497 28.6166C24.763 28.6166 24.0415 27.8711 24.0415 26.9549V21.996C24.0415 21.7207 23.8255 21.4975 23.5591 21.4975C23.2926 21.4975 23.0766 21.7207 23.0766 21.996V26.9549C23.0766 28.421 24.2309 29.6137 25.6497 29.6137C26.2578 29.6137 26.8169 29.3942 27.2579 29.0283V30.216C27.2579 30.5747 26.9754 30.8666 26.6283 30.8666H20.8473C20.697 30.4066 20.2764 30.0742 19.7812 30.0742H16.1329C15.5122 30.0742 15.0071 30.5961 15.0071 31.2375V33.7865C15.0071 34.4279 15.5122 34.9499 16.1329 34.9499H19.7812C20.2747 34.9499 20.694 34.6196 20.8457 34.1621H23.9782C24.2446 34.1621 24.4607 33.9389 24.4607 33.6635C24.4607 33.3882 24.2446 33.165 23.9782 33.165H20.907V31.8638H26.6283C27.5075 31.8638 28.2228 31.1245 28.2228 30.216V27.7196L29.4821 27.0817V31.5088C29.4821 32.422 28.7631 33.165 27.8794 33.165H26.3851C26.1186 33.165 25.9026 33.3882 25.9026 33.6635C25.9026 33.9389 26.1186 34.1621 26.3851 34.1621H27.8794C29.2952 34.1621 30.4471 32.9719 30.4471 31.5088V26.5928L31.3121 26.1546C31.9541 25.8293 32.369 25.1418 32.369 24.4029V19.8128C32.369 19.074 31.9541 18.3865 31.3121 18.0612ZM7.48409 16.3253C8.37084 16.3253 9.09225 17.0708 9.09225 17.9871V26.955C9.09225 27.8713 8.37084 28.6167 7.48409 28.6167C6.59734 28.6167 5.87592 27.8713 5.87592 26.955V17.987C5.87592 17.0707 6.59734 16.3253 7.48409 16.3253ZM15.972 33.7865V31.2376C15.972 31.146 16.0442 31.0714 16.1328 31.0714H17.4745V33.9527H16.1328C16.0442 33.9527 15.972 33.8781 15.972 33.7865ZM19.942 33.7865C19.942 33.8781 19.8698 33.9527 19.7812 33.9527H18.4395V31.0714H19.7812C19.8698 31.0714 19.942 31.146 19.942 31.2376V33.7865ZM31.404 24.4029C31.404 24.7642 31.2011 25.1003 30.8873 25.2593L28.2228 26.6092C28.2228 25.3376 28.2228 17.2648 28.2228 16.2293C28.2228 14.3453 27.7985 12.4753 26.9932 10.7942L28.0473 9.78909C29.048 11.7273 29.5754 13.8986 29.5769 16.1079C29.5734 16.5219 29.5831 17.0771 29.5763 17.7464C29.5732 18.0764 29.7564 18.3835 30.043 18.5288L30.8873 18.9566C31.2012 19.1156 31.4041 19.4517 31.4041 19.8129V24.4029H31.404Z" fill="white"/>
</svg>
