<svg width="10" height="10" viewBox="0 0 10 10" fill="none" xmlns="http://www.w3.org/2000/svg">
<g clip-path="url(#clip0)">
<path d="M0 3.56291C0 3.48792 0 3.41321 0 3.33822C0.133134 3.08375 0.319375 3.07196 0.536452 3.17616C0.586377 3.20003 0.640463 3.23009 0.705072 3.22054C0.516628 2.76918 0.435867 2.30435 0.487995 1.81086C0.527641 1.43534 0.639484 1.09381 0.832087 0.788507C0.967669 0.573924 1.21069 0.584036 1.33819 0.806482C1.37025 0.862375 1.39693 0.922762 1.42703 0.980339C2.16416 2.39142 3.22263 3.2534 4.65406 3.47809C4.77178 3.49663 4.77104 3.49691 4.77006 3.36097C4.76419 2.51949 4.99717 1.78727 5.51478 1.18032C6.11731 0.473374 7.11631 0.262442 7.89382 0.691046C7.97042 0.733176 8.02695 0.730087 8.10062 0.687676C8.46869 0.474778 8.83995 0.269183 9.20925 0.0593755C9.31718 -0.00185362 9.4251 -0.0257273 9.53474 0.0464556C9.67889 0.141389 9.72245 0.332098 9.64096 0.524773C9.50611 0.843557 9.3671 1.16009 9.23128 1.47804C9.21659 1.51258 9.18771 1.54348 9.20044 1.59488C9.33676 1.58224 9.47332 1.5755 9.60841 1.55584C9.74888 1.53533 9.87076 1.56511 9.95152 1.70638C10.0357 1.85412 10.0002 1.9968 9.92289 2.13611C9.78853 2.3785 9.65882 2.62454 9.52544 2.86805C9.50195 2.91102 9.48824 2.95175 9.49583 3.00399C9.5274 3.22559 9.54478 3.44888 9.55946 3.67301C9.61379 4.51365 9.51125 5.32788 9.26138 6.11881C9.03231 6.84373 8.68455 7.48803 8.24697 8.06915C7.94546 8.46967 7.61115 8.82833 7.21689 9.10864C6.40512 9.68554 5.50915 9.92624 4.56865 9.98747C4.11957 10.0167 3.67097 10.0015 3.22385 9.94338C2.46176 9.84451 1.71948 9.65268 1.01025 9.31171C0.758178 9.19037 0.515649 9.04601 0.31497 8.82468C0.256723 8.76065 0.216587 8.6865 0.210469 8.59156C0.196275 8.36715 0.330877 8.21211 0.54673 8.21632C0.956901 8.22419 1.36658 8.22924 1.77259 8.1447C2.19059 8.05763 2.57213 7.87591 2.91475 7.56387C2.88123 7.55263 2.85675 7.54365 2.83228 7.53606C2.14679 7.31951 1.51195 6.99483 0.999239 6.4067C0.910402 6.30474 0.856561 6.19239 0.88911 6.04578C0.922393 5.89636 1.01343 5.81828 1.14143 5.78345C1.23247 5.75845 1.3262 5.73964 1.41626 5.68796C1.4028 5.67672 1.39791 5.67195 1.39252 5.6683C1.34749 5.6388 1.30197 5.60988 1.25719 5.5801C0.712903 5.2175 0.328185 4.70295 0.116982 4.01792C0.0707274 3.86822 0.0614276 3.70672 0 3.56291Z" fill="#7C7C7C"/>
</g>
<defs>
<clipPath id="clip0">
<rect width="10" height="10" fill="white"/>
</clipPath>
</defs>
</svg>
