<svg width="15" height="12" viewBox="0 0 15 12" fill="none" xmlns="http://www.w3.org/2000/svg">
<path d="M12.6235 2.86133C12.6418 2.93424 12.6509 3.05273 12.6509 3.2168C12.6509 4.5293 12.3319 5.79622 11.6938 7.01758C11.0376 8.31185 10.117 9.3418 8.93213 10.1074C7.63786 10.9642 6.15218 11.3926 4.4751 11.3926C2.87093 11.3926 1.40348 10.9642 0.0727539 10.1074C0.273275 10.1257 0.501139 10.1348 0.756348 10.1348C2.08708 10.1348 3.28109 9.72461 4.33838 8.9043C3.70036 8.9043 3.13525 8.72201 2.64307 8.35742C2.16911 7.97461 1.84098 7.50065 1.65869 6.93555C1.84098 6.95378 2.01416 6.96289 2.17822 6.96289C2.43343 6.96289 2.68864 6.93555 2.94385 6.88086C2.2876 6.73503 1.74072 6.39779 1.30322 5.86914C0.865723 5.34049 0.646973 4.73893 0.646973 4.06445V4.00977C1.04801 4.24674 1.4764 4.37435 1.93213 4.39258C1.54932 4.11914 1.23942 3.77279 1.00244 3.35352C0.765462 2.93424 0.646973 2.47852 0.646973 1.98633C0.646973 1.47591 0.783691 0.992839 1.05713 0.537109C1.76807 1.43034 2.63395 2.14128 3.65479 2.66992C4.69385 3.19857 5.79671 3.49023 6.96338 3.54492C6.92692 3.32617 6.90869 3.10742 6.90869 2.88867C6.90869 2.37826 7.0363 1.9043 7.2915 1.4668C7.54671 1.01107 7.89307 0.655599 8.33057 0.400391C8.76807 0.145182 9.24202 0.0175781 9.75244 0.0175781C10.1717 0.0175781 10.5545 0.0996094 10.9009 0.263672C11.2655 0.427734 11.5845 0.646484 11.8579 0.919922C12.5142 0.792318 13.1248 0.564453 13.6899 0.236328C13.4712 0.910807 13.0519 1.43945 12.4321 1.82227C12.979 1.74935 13.5259 1.5944 14.0728 1.35742C13.6717 1.94076 13.1886 2.44206 12.6235 2.86133Z" fill="#CAD1D8"/>
</svg>
