<svg width="24" height="22" viewBox="0 0 24 22" fill="none" xmlns="http://www.w3.org/2000/svg">
<path d="M24 6.86728C24 11.3248 24 15.7828 24 20.2403C23.9374 20.2521 23.9468 20.3097 23.9336 20.3493C23.5846 21.4326 22.8109 21.9987 21.6706 21.9987C15.6009 21.9993 9.53123 21.9987 3.46216 21.9999C3.22659 21.9999 2.9929 21.9832 2.76359 21.9367C1.11585 21.606 0.00127842 20.2564 0.000651903 18.5836C-0.000601132 13.5303 2.53854e-05 8.4776 0.00190494 3.42492C0.00253145 1.48325 1.49364 0.00238443 3.45339 0.00114573C8.70298 -0.00133168 13.9519 -0.000712326 19.2015 0.00114573C20.5655 0.00176508 21.5065 0.938844 21.5096 2.29461C21.5115 3.1072 21.5102 3.91979 21.5102 4.73176C21.5102 5.04762 21.5102 5.04762 21.8235 5.05382C22.7752 5.07302 23.5777 5.65025 23.8854 6.52973C23.9242 6.64246 23.9142 6.77128 24 6.86728ZM1.51181 5.97417C1.50805 6.05221 1.50555 6.08256 1.50555 6.11291C1.50555 10.2688 1.50304 14.424 1.5068 18.5798C1.50805 19.7071 2.32628 20.5048 3.48973 20.5054C9.55942 20.5091 15.6297 20.5079 21.6994 20.5066C22.2195 20.5066 22.4939 20.2298 22.4945 19.7164C22.4958 18.9812 22.4951 18.246 22.4951 17.5108C22.4951 17.1913 22.4951 17.1913 22.1762 17.1913C20.3167 17.1888 18.4572 17.221 16.599 17.1739C14.8184 17.1287 13.3549 15.5989 13.3154 13.8356C13.2709 11.8506 14.8347 10.2601 16.8421 10.2564C18.6546 10.2533 20.4671 10.2533 22.279 10.2595C22.4494 10.2601 22.502 10.226 22.5001 10.047C22.4895 9.16508 22.4951 8.2825 22.4951 7.40054C22.4951 6.78924 22.2477 6.54398 21.6305 6.54398C15.7482 6.54398 9.86579 6.53964 3.98342 6.54893C3.12008 6.55017 2.28368 6.49877 1.51181 5.97417ZM11.5543 5.05258C14.2877 5.05258 17.0212 5.04948 19.7547 5.05815C19.969 5.05877 20.0097 4.99993 20.0066 4.80174C19.9947 3.97429 20.0022 3.14621 20.0016 2.31814C20.001 1.75453 19.7397 1.49254 19.1708 1.49254C13.9457 1.49193 8.72114 1.49193 3.49599 1.49254C3.27671 1.49254 3.05931 1.51484 2.84817 1.57616C1.99799 1.82452 1.40969 2.69285 1.54063 3.50296C1.68661 4.40598 2.47602 5.05134 3.44775 5.05196C6.14992 5.05382 8.85209 5.05258 11.5543 5.05258ZM19.4766 15.6924C19.4766 15.6943 19.4766 15.6961 19.4766 15.698C20.4207 15.698 21.3655 15.6974 22.3097 15.6986C22.4156 15.6986 22.5001 15.7116 22.4989 15.5518C22.4926 14.3305 22.4939 13.1091 22.4976 11.8871C22.4976 11.7775 22.4682 11.7341 22.3542 11.7422C22.2376 11.7509 22.1205 11.7441 22.0033 11.7441C20.2785 11.7441 18.5537 11.736 16.8289 11.7472C15.5652 11.7552 14.6655 12.8223 14.8566 14.058C14.9932 14.9405 15.7914 15.6683 16.6911 15.6875C17.6183 15.7079 18.5474 15.6924 19.4766 15.6924Z" fill="#2E2E2D"/>
</svg>
