<svg width="10" height="10" viewBox="0 0 10 10" fill="none" xmlns="http://www.w3.org/2000/svg">
<g clip-path="url(#clip0)">
<path d="M0 10.0001C0.229641 9.16199 0.453143 8.34382 0.679636 7.52659C0.696792 7.46468 0.693644 7.41672 0.66248 7.36045C-0.675386 4.94278 0.217207 1.9085 2.65559 0.600367C3.59005 0.0989643 4.59219 -0.105578 5.64328 0.0522565C7.71193 0.36291 9.09686 1.52731 9.76186 3.4928C10.4001 5.37929 9.71842 7.55261 8.15831 8.79992C7.20701 9.56041 6.12255 9.93768 4.90304 9.91605C4.12519 9.90226 3.39031 9.71057 2.7017 9.34803C2.65574 9.32374 2.61435 9.32061 2.56304 9.33409C1.74631 9.54913 0.928951 9.76167 0.111909 9.97467C0.0796424 9.98298 0.046904 9.9894 0 10.0001ZM1.19385 8.82532C1.22249 8.81858 1.23839 8.81513 1.25397 8.8109C1.70775 8.69225 2.16215 8.57595 2.61466 8.4526C2.71634 8.42485 2.79504 8.43927 2.88649 8.49147C4.16454 9.21982 5.48745 9.30195 6.81257 8.66435C8.93065 7.64508 9.75887 5.14214 8.68071 3.06099C7.86146 1.47935 6.14694 0.618705 4.37215 0.892996C3.5721 1.01666 2.86429 1.34973 2.26414 1.89267C1.38257 2.6903 0.917147 3.68527 0.883779 4.87318C0.860012 5.71847 1.08934 6.49589 1.54815 7.20606C1.59238 7.27456 1.60607 7.33333 1.5823 7.4164C1.44977 7.87894 1.32559 8.34382 1.19385 8.82532Z" fill="#7C7C7C"/>
<path d="M3.40475 2.6795C3.62762 2.62041 3.72646 2.7632 3.80186 2.9574C3.91345 3.24423 4.0348 3.52745 4.15679 3.81021C4.19787 3.9055 4.19377 3.98873 4.13601 4.07462C4.04299 4.21318 3.94178 4.34562 3.83334 4.47195C3.76109 4.55597 3.75794 4.63245 3.81398 4.72603C4.2199 5.40407 4.78558 5.89529 5.5233 6.18839C5.6245 6.22867 5.70493 6.21268 5.77324 6.12757C5.89711 5.97319 6.02382 5.82099 6.14674 5.66598C6.23158 5.55893 6.27817 5.53714 6.40645 5.58824C6.76767 5.73244 7.11221 5.91284 7.45895 6.0876C7.51955 6.11817 7.53828 6.16974 7.53687 6.23384C7.52506 6.76471 7.36955 7.02207 6.80214 7.25828C6.48152 7.39182 6.14958 7.35922 5.81967 7.26768C4.62189 6.93556 3.74 6.18525 3.03392 5.19702C2.81262 4.88731 2.6132 4.56803 2.52994 4.19186C2.41111 3.65535 2.54584 3.19141 2.94279 2.80536C3.06871 2.68326 3.22122 2.65866 3.40475 2.6795Z" fill="#7C7C7C"/>
</g>
<defs>
<clipPath id="clip0">
<rect width="10" height="10" fill="white"/>
</clipPath>
</defs>
</svg>
