<svg width="12" height="9" viewBox="0 0 12 9" fill="none" xmlns="http://www.w3.org/2000/svg">
<path d="M11.1808 0.879076C10.8641 0.315656 10.5203 0.212022 9.82043 0.172612C9.12126 0.125174 7.36313 0.105469 5.84 0.105469C4.31395 0.105469 2.55509 0.125174 1.85666 0.171882C1.15822 0.212022 0.813747 0.314926 0.494087 0.879076C0.167858 1.44177 0 2.41096 0 4.11728C0 4.11874 0 4.11947 0 4.11947C0 4.12093 0 4.12166 0 4.12166V4.12312C0 5.82213 0.167858 6.79863 0.494087 7.35548C0.813747 7.9189 1.15749 8.02107 1.85593 8.06851C2.55509 8.10938 4.31395 8.13347 5.84 8.13347C7.36313 8.13347 9.12126 8.10938 9.82116 8.06924C10.5211 8.0218 10.8648 7.91963 11.1815 7.35621C11.5107 6.79936 11.6771 5.82286 11.6771 4.12385C11.6771 4.12385 11.6771 4.12166 11.6771 4.1202C11.6771 4.1202 11.6771 4.11874 11.6771 4.11801C11.6771 2.41096 11.5107 1.44177 11.1808 0.879076ZM4.37891 6.30892V1.93001L8.028 4.11947L4.37891 6.30892Z" fill="#7C7C7C"/>
</svg>
